<?xml version="1.0" encoding="UTF-8"?>
<svg xmlns="http://www.w3.org/2000/svg" width="345" height="100" viewBox="0 0 345 100" fill="none">
  <path fill-rule="evenodd" clip-rule="evenodd" d="M32.709 7.07032C50.7739 7.07032 65.4187 21.7145 65.4187 39.7794C65.4187 57.8445 50.7739 72.489 32.709 72.489C14.6445 72.489 0 57.8445 0 39.7794C0 21.7145 14.6445 7.07032 32.709 7.07032Z" fill="#2D3591"></path>
  <path fill-rule="evenodd" clip-rule="evenodd" d="M28.7292 21.015L7.58154 46.1751L28.8909 1.68288C34.6287 14.3362 51.3938 80.7487 75.511 66.1545C52.0051 82.2839 34.9416 37.8237 28.7292 21.015Z" fill="#51AEE5"></path>
  <path d="M28.7288 19.3315C28.824 19.3315 28.9215 19.3397 29.0177 19.3565C29.6084 19.4593 30.0991 19.8694 30.3073 20.4317C33.9632 30.3224 44.7446 59.4911 59.1976 66.4382C46.5139 56.9345 37.189 30.0499 31.3623 13.2545C30.3703 10.3954 29.5011 7.8888 28.7528 5.86757L14.8313 34.9334L27.4407 19.9324C27.7631 19.5482 28.2371 19.3315 28.7288 19.3315ZM65.4262 71.3049C63.7144 71.3049 62.0039 71.0347 60.2993 70.493C45.7169 65.8589 35.0981 42.6251 28.1621 24.3045L8.86921 47.2577C8.32688 47.9085 7.38334 48.0512 6.6692 47.5893C5.95727 47.1298 5.69718 46.2122 6.0639 45.4484L27.3733 0.956223C27.653 0.372128 28.2437 2.94445e-05 28.8908 2.94445e-05C28.8965 2.94445e-05 28.9028 3.3925e-05 28.9085 0.000666748C29.5622 0.00731139 30.1539 0.392385 30.4232 0.987871C31.4705 3.29704 32.826 7.20441 34.5428 12.1518C40.4642 29.2232 51.4882 61.0004 65.1151 65.919C68.2928 67.0644 71.4079 66.6708 74.6394 64.715C75.4207 64.242 76.4329 64.478 76.9246 65.2431C77.4191 66.0088 77.2134 67.0274 76.4626 67.5431C72.8115 70.0475 69.1171 71.3049 65.4262 71.3049Z" fill="white"></path>
  <path fill-rule="evenodd" clip-rule="evenodd" d="M28.7292 21.015L7.58154 46.1751L28.8909 1.68288C34.6287 14.3362 51.3938 80.7487 75.511 66.1545C52.0051 82.2839 34.9416 37.8237 28.7292 21.015Z" fill="#EB1D27"></path>
  <path fill-rule="evenodd" clip-rule="evenodd" d="M169.851 60.8251L167.193 69.964H93.4765C93.4765 69.964 86.3452 70.3725 85.6026 63.2795V56.6326V12.3122C85.6026 12.3122 85.2315 4.97657 93.9578 4.93955H334.672C334.672 4.93955 342.396 5.57048 341.69 13.1466V61.1551C341.69 61.1551 343.213 69.7409 333.371 70.0757H264.466L262.294 62.9251L261.168 59.219C260.741 57.8138 260.533 56.5782 259.252 55.6533C258.187 54.8841 256.382 54.2184 253.325 54.2184H230.401H177.991C177.991 54.2184 174.428 53.8267 172.095 55.9194C170.628 57.2357 170.37 59.0418 169.851 60.8251Z" fill="#DB1E28"></path>
  <path fill-rule="evenodd" clip-rule="evenodd" d="M166.283 73.0469L166.546 72.078L92.4744 72.0837C92.4744 72.0837 84.5274 72.3599 83.7848 64.0415V26.0313V12.0336C83.7848 12.0336 82.9675 2.91619 92.9572 2.87885H239.3H335.2C335.2 2.87885 344.283 2.6523 343.613 12.7781V63.3732C343.613 63.3732 343.92 72.2859 334.079 71.9885H265.111L265.412 73.0095H313.989H333.225C333.225 73.0095 337.615 73.4139 340.609 71.3632C340.609 71.3632 344.291 69.7233 344.551 63.5216V36.9019V11.1233C344.551 11.1233 344.811 7.78069 341.952 4.66151C341.952 4.66151 339.888 2.30235 335.565 1.96948H308.321H233.79H115.107H92.2146C92.2146 1.96948 88.3819 1.82204 85.4627 4.57482C85.4627 4.57482 82.7077 6.96404 82.8191 11.9402V24.9378V61.1001V64.1396C82.8191 64.1396 83.0048 71.6543 90.8034 72.8428C90.8034 72.8428 91.5552 73.0095 92.4772 73.0469H111.748H166.283Z" fill="white"></path>
  <path d="M92.1341 2.13968C91.57 2.13968 88.1819 2.24567 85.58 4.69944C85.5477 4.7276 82.8823 7.10702 82.9908 11.9361V64.1399C82.9984 64.4363 83.2673 71.5211 90.8293 72.6725C90.8489 72.6763 91.5896 72.8393 92.4844 72.8757H166.152L166.322 72.2495L92.4743 72.2549C92.3866 72.2409 84.3621 72.4403 83.6145 64.057L83.6138 12.0339C83.5999 11.8905 83.2936 8.12587 85.78 5.39682C87.3946 3.62428 89.8098 2.71934 92.9562 2.70763H335.2C335.34 2.69972 339.039 2.64088 341.567 5.27595C343.252 7.03172 343.998 9.55984 343.784 12.7901V63.3726C343.79 63.5206 343.885 67.1714 341.32 69.747C339.632 71.4423 337.203 72.2479 334.074 72.1596H265.341L265.54 72.8383H333.225C333.285 72.8399 337.605 73.2117 340.512 71.2221C340.574 71.1904 344.128 69.5255 344.38 63.5143V11.1235C344.383 11.0777 344.597 7.80123 341.826 4.77697C341.803 4.75166 339.747 2.46336 335.551 2.14031H92.2148C92.2107 2.14031 92.1838 2.13968 92.1341 2.13968ZM166.414 73.218H92.4775C91.5437 73.181 90.7976 73.0165 90.7666 73.0095C82.9282 71.8163 82.6497 64.2202 82.6484 64.1437V11.9402C82.5358 6.94501 85.2354 4.54536 85.35 4.44537C88.2834 1.67867 92.1854 1.79637 92.2208 1.79795H335.565C339.921 2.13272 341.995 4.45011 342.081 4.54852C344.954 7.68416 344.733 10.9973 344.723 11.1365V63.5216C344.461 69.7647 340.833 71.4509 340.678 71.5198C337.696 73.5667 333.392 73.1962 333.209 73.18L265.284 73.181L264.882 71.8173H334.079C337.11 71.9163 339.456 71.1316 341.075 69.5075C343.535 67.0398 343.444 63.4146 343.442 63.3789V12.7784C343.65 9.63894 342.936 7.1991 341.322 5.51547C338.906 2.99494 335.252 3.0462 335.204 3.04999H92.9571C89.912 3.0617 87.5829 3.92804 86.0356 5.62558C83.6508 8.24136 83.9524 11.981 83.9552 12.0184L83.9562 64.0414C84.6735 72.0799 92.1604 71.9233 92.468 71.9125L166.77 71.9071L166.414 73.218Z" fill="white"></path>
  <path d="M323.443 50.0347V35.2583L331.927 12.1665H324.286L322.038 21.0435C321.364 23.7402 320.746 26.4937 320.297 29.2464H320.185C319.623 26.4373 318.892 23.6279 318.162 21.2124L315.633 12.1665H307.758L316.083 35.5389V50.0347H323.443ZM292.823 17.9537C293.216 17.7851 293.946 17.7287 294.621 17.7287C297.879 17.8414 299.172 20.0885 299.172 23.3473C299.172 26.662 297.374 29.2464 294.171 29.2464H292.823V17.9537ZM285.463 50.0347H292.823V34.921H293.946C296.362 34.921 297.542 36.2695 298.216 40.9331C298.778 45.1467 299.621 48.9674 300.127 50.0347H307.824C307.15 48.6298 306.139 43.9668 305.408 39.7532C304.678 35.6516 303.385 33.2918 300.801 32.2242V32.1122C304.622 30.3703 306.644 26.718 306.644 22.673C306.644 19.4143 305.914 16.8858 303.61 14.8073C301.194 12.6158 297.542 11.9979 293.497 11.9979C290.688 11.9979 287.766 12.2786 285.463 12.7285V50.0347ZM267.483 50.0347H274.844V18.965H281.586V12.1665H260.798V18.965H267.483V50.0347ZM248.718 37.1687H259.899V31.8872H248.718V37.1687ZM227.762 50.0347V41.551C227.762 33.91 227.481 28.0665 227.256 24.2459H227.368C228.267 27.6172 229.953 32.4488 231.245 35.6516L237.032 50.0347H243.774V12.1665H237.313V20.5378C237.313 27.5049 237.819 34.0787 238.044 38.0674H237.931C236.864 34.8086 235.066 29.9207 233.886 26.9993L228.043 12.1665H221.301V50.0347H227.762ZM202.311 35.6516L203.715 27.7296C204.108 25.5381 204.67 21.6614 205.063 19.1336H205.232C205.569 21.6057 206.075 25.4258 206.468 27.7296L207.704 35.6516H202.311ZM208.378 41.3824L210.008 50.0347H217.143L209.783 12.1665H200.962L192.759 50.0347H199.895L201.58 41.3824H208.378ZM183.601 50.0347H190.175L187.871 12.1665H180.117L177.084 25.8757C176.129 30.651 175.286 34.921 174.724 39.1352H174.555C173.881 34.865 172.926 30.651 171.915 25.8757L168.881 12.1665H161.071L158.374 50.0347H164.667L165.341 36.8875C165.51 33.1231 165.791 28.3475 165.903 24.2459H166.016C166.634 28.3475 167.645 33.0671 168.375 36.1009L171.522 49.4167H176.691L180.005 35.8765C180.736 32.9551 181.747 28.2915 182.422 24.2459H182.534C182.478 28.2915 182.702 33.1794 182.927 36.7751L183.601 50.0347ZM147.812 50.0347H154.386L152.082 12.1665H144.328L141.295 25.8757C140.34 30.651 139.497 34.921 138.935 39.1352H138.766C138.092 34.865 137.137 30.651 136.126 25.8757L133.092 12.1665H125.282L122.585 50.0347H128.878L129.552 36.8875C129.721 33.1231 130.002 28.3475 130.114 24.2459H130.226C130.845 28.3475 131.856 33.0671 132.586 36.1009L135.733 49.4167H140.901L144.216 35.8765C144.946 32.9551 145.958 28.2915 146.632 24.2459H146.744C146.689 28.2915 146.913 33.1794 147.138 36.7751L147.812 50.0347ZM105 35.6516L106.405 27.7296C106.798 25.5381 107.36 21.6614 107.753 19.1336H107.922C108.259 21.6057 108.764 25.4258 109.157 27.7296L110.394 35.6516H105ZM111.068 41.3824L112.697 50.0347H119.833L112.472 12.1665H103.652L95.4486 50.0347H102.584L104.27 41.3824H111.068Z" fill="#211D1D"></path>
  <path d="M323.443 48.7314V33.955L331.927 10.8633H324.286L322.038 19.7402C321.364 22.4373 320.746 25.1904 320.297 27.9432H320.185C319.623 25.1341 318.892 22.3247 318.162 19.9089L315.633 10.8633H307.758L316.083 34.2357V48.7314H323.443ZM292.823 16.6505C293.216 16.4818 293.946 16.4255 294.621 16.4255C297.879 16.5382 299.172 18.7853 299.172 22.044C299.172 25.3588 297.374 27.9432 294.171 27.9432H292.823V16.6505ZM285.463 48.7314H292.823V33.6177H293.946C296.362 33.6177 297.542 34.9663 298.216 39.6299C298.778 43.8435 299.621 47.6636 300.127 48.7314H307.824C307.15 47.3266 306.138 42.6636 305.408 38.45C304.678 34.3483 303.385 31.9885 300.801 30.921V30.809C304.622 29.0671 306.644 25.4148 306.644 21.3698C306.644 18.111 305.914 15.5826 303.61 13.5041C301.194 11.3129 297.542 10.6947 293.497 10.6947C290.688 10.6947 287.766 10.9753 285.463 11.4253V48.7314ZM267.483 48.7314H274.843V17.6617H281.586V10.8633H260.798V17.6617H267.483V48.7314ZM248.718 35.8655H259.899V30.584H248.718V35.8655ZM227.761 48.7314V40.2478C227.761 32.6068 227.481 26.7633 227.256 22.9426H227.368C228.267 26.314 229.953 31.1456 231.245 34.3483L237.032 48.7314H243.774V10.8633H237.313V19.2346C237.313 26.2017 237.819 32.7754 238.044 36.7641H237.931C236.864 33.5054 235.066 28.6175 233.886 25.6961L228.043 10.8633H221.301V48.7314H227.761ZM202.311 34.3483L203.715 26.4263C204.108 24.2349 204.67 20.3582 205.063 17.8304H205.232C205.569 20.3025 206.075 24.1225 206.468 26.4263L207.704 34.3483H202.311ZM208.378 40.0792L210.008 48.7314H217.143L209.783 10.8633H200.962L192.759 48.7314H199.895L201.58 40.0792H208.378ZM183.601 48.7314H190.175L187.871 10.8633H180.117L177.084 24.5725C176.129 29.3478 175.286 33.6177 174.724 37.832H174.555C173.881 33.5614 172.926 29.3478 171.915 24.5725L168.881 10.8633H161.071L158.374 48.7314H164.667L165.341 35.5842C165.51 31.8199 165.791 27.0446 165.903 22.9426H166.016C166.634 27.0446 167.645 31.7639 168.375 34.7976L171.522 48.1135H176.691L180.005 34.5733C180.736 31.6519 181.747 26.9883 182.422 22.9426H182.534C182.478 26.9883 182.702 31.8762 182.927 35.4719L183.601 48.7314ZM147.812 48.7314H154.386L152.082 10.8633H144.328L141.295 24.5725C140.339 29.3478 139.497 33.6177 138.935 37.832H138.766C138.092 33.5614 137.137 29.3478 136.126 24.5725L133.092 10.8633H125.282L122.585 48.7314H128.878L129.552 35.5842C129.721 31.8199 130.002 27.0446 130.114 22.9426H130.226C130.845 27.0446 131.856 31.7639 132.586 34.7976L135.733 48.1135H140.901L144.216 34.5733C144.946 31.6519 145.958 26.9883 146.632 22.9426H146.744C146.688 26.9883 146.913 31.8762 147.138 35.4719L147.812 48.7314ZM104.999 34.3483L106.404 26.4263C106.797 24.2349 107.36 20.3582 107.753 17.8304H107.922C108.259 20.3025 108.764 24.1225 109.157 26.4263L110.394 34.3483H104.999ZM111.068 40.0792L112.697 48.7314H119.833L112.472 10.8633H103.652L95.4486 48.7314H102.584L104.27 40.0792H111.068Z" fill="white"></path>
  <path d="M102.163 95.7879H102.834C103.436 95.7879 103.852 95.637 104.08 95.3358C104.308 95.0349 104.422 94.583 104.422 93.9806C104.422 93.5139 104.369 93.1424 104.262 92.8656C104.155 92.5884 103.983 92.3843 103.745 92.253C103.507 92.1223 103.188 92.0565 102.79 92.0565H102.163V95.7879ZM102.163 90.4384H102.761C103.179 90.4384 103.494 90.3779 103.708 90.2564C103.922 90.1352 104.07 89.9501 104.153 89.7027C104.235 89.4546 104.277 89.1509 104.277 88.7914C104.277 88.432 104.216 88.1428 104.095 87.9245C103.973 87.7055 103.788 87.5479 103.541 87.4508C103.293 87.3534 102.979 87.3046 102.601 87.3046H102.163V90.4384ZM99.7582 97.4785V85.6723H102.746C103.261 85.6723 103.737 85.7159 104.175 85.8036C104.612 85.8909 104.998 86.0466 105.333 86.2696C105.668 86.4933 105.926 86.8018 106.106 87.1955C106.286 87.5891 106.376 88.1017 106.376 88.7332C106.376 89.2094 106.308 89.6151 106.172 89.9501C106.035 90.2855 105.841 90.5504 105.589 90.7446C105.336 90.9392 105.025 91.0706 104.656 91.1379C105.112 91.206 105.496 91.3617 105.807 91.6047C106.118 91.8477 106.352 92.1682 106.507 92.5665C106.662 92.9652 106.74 93.4459 106.74 94.0097C106.74 94.6027 106.665 95.1175 106.514 95.5547C106.364 95.992 106.142 96.3515 105.851 96.6334C105.559 96.9153 105.2 97.1267 104.772 97.2675C104.345 97.4083 103.849 97.4785 103.286 97.4785H99.7582Z" fill="white"></path>
  <path d="M108.154 85.6723H110.544V97.4785H108.154V85.6723Z" fill="white"></path>
  <path d="M112.351 97.4785V85.6723H114.756V95.8458H117.525V97.4785H112.351Z" fill="white"></path>
  <path d="M118.662 97.4785V85.6723H121.068V95.8458H123.837V97.4785H118.662Z" fill="white"></path>
  <path d="M124.974 97.4785V85.6723H130.119V87.3337H127.379V90.4675H129.493V92.1438H127.379V95.8458H130.148V97.4785H124.974Z" fill="white"></path>
  <path d="M132.465 97.4785V87.465H130.643V85.6723H136.678V87.465H134.885V97.4785H132.465Z" fill="white"></path>
  <path d="M140.803 97.6389C140.074 97.6389 139.467 97.5054 138.981 97.238C138.495 96.971 138.128 96.5675 137.881 96.0284C137.633 95.4889 137.489 94.8017 137.451 93.9657L139.52 93.6161C139.54 94.1021 139.591 94.5077 139.673 94.833C139.756 95.1586 139.882 95.4013 140.052 95.5617C140.222 95.7221 140.433 95.8021 140.686 95.8021C140.997 95.8021 141.208 95.7053 141.32 95.5107C141.432 95.3165 141.488 95.0931 141.488 94.8403C141.488 94.3448 141.369 93.9293 141.131 93.5939C140.893 93.2585 140.579 92.9215 140.19 92.5811L138.966 91.5173C138.529 91.1481 138.172 90.7298 137.895 90.2634C137.618 89.797 137.48 89.2236 137.48 88.5437C137.48 87.5723 137.764 86.8262 138.332 86.306C138.901 85.7865 139.68 85.5264 140.672 85.5264C141.264 85.5264 141.75 85.6235 142.129 85.8181C142.508 86.0124 142.802 86.2725 143.011 86.5977C143.22 86.9233 143.366 87.278 143.448 87.6618C143.531 88.046 143.582 88.4272 143.601 88.806L141.546 89.1119C141.527 88.7528 141.495 88.4367 141.451 88.1646C141.408 87.8928 141.32 87.6789 141.189 87.5236C141.058 87.3679 140.861 87.29 140.599 87.29C140.317 87.29 140.108 87.3945 139.972 87.6033C139.836 87.8128 139.768 88.0431 139.768 88.2959C139.768 88.7136 139.863 89.0566 140.052 89.3233C140.242 89.591 140.502 89.8701 140.832 90.1615L142.027 91.2107C142.523 91.6388 142.948 92.127 143.303 92.6757C143.657 93.225 143.835 93.9027 143.835 94.7093C143.835 95.263 143.708 95.7635 143.456 96.2103C143.203 96.6577 142.851 97.0074 142.399 97.2595C141.947 97.5124 141.415 97.6389 140.803 97.6389Z" fill="white"></path>
  <path d="M152.449 85.6723H154.3V100H152.449V85.6723Z" fill="white"></path>
  <path d="M164.532 97.4785V87.465H162.71V85.6723H168.745V87.465H166.951V97.4785H164.532Z" fill="white"></path>
  <path d="M169.677 97.4785L169.881 85.6723H172.432L173.89 93.1203L175.449 85.6723H177.912L178.116 97.4785H176.367L176.178 89.4765L174.677 97.4785H173.175L171.601 89.4183L171.441 97.4785H169.677Z" fill="white"></path>
  <path d="M180.871 97.4785V87.465H179.049V85.6723H185.083V87.465H183.29V97.4785H180.871Z" fill="white"></path>
  <path d="M192.196 95.7879H192.866C193.469 95.7879 193.884 95.637 194.113 95.3358C194.341 95.0349 194.455 94.583 194.455 93.9806C194.455 93.5139 194.402 93.1424 194.295 92.8656C194.188 92.5884 194.015 92.3843 193.777 92.253C193.539 92.1223 193.221 92.0565 192.823 92.0565H192.196V95.7879ZM192.196 90.4384H192.794C193.211 90.4384 193.527 90.3779 193.741 90.2564C193.955 90.1352 194.103 89.9501 194.186 89.7027C194.268 89.4546 194.31 89.1509 194.31 88.7914C194.31 88.432 194.248 88.1428 194.127 87.9245C194.006 87.7055 193.821 87.5479 193.573 87.4508C193.326 87.3534 193.012 87.3046 192.633 87.3046H192.196V90.4384ZM189.791 97.4785V85.6723H192.779C193.294 85.6723 193.77 85.7159 194.207 85.8036C194.645 85.8909 195.031 86.0466 195.366 86.2696C195.701 86.4933 195.959 86.8018 196.138 87.1955C196.318 87.5891 196.408 88.1017 196.408 88.7332C196.408 89.2094 196.34 89.6151 196.204 89.9501C196.068 90.2855 195.874 90.5504 195.621 90.7446C195.368 90.9392 195.058 91.0706 194.688 91.1379C195.145 91.206 195.529 91.3617 195.84 91.6047C196.151 91.8477 196.384 92.1682 196.539 92.5665C196.695 92.9652 196.773 93.4459 196.773 94.0097C196.773 94.6027 196.698 95.1175 196.547 95.5547C196.396 95.992 196.175 96.3515 195.884 96.6334C195.592 96.9153 195.233 97.1267 194.805 97.2675C194.378 97.4083 193.882 97.4785 193.318 97.4785H189.791Z" fill="white"></path>
  <path d="M200.475 93.412H201.889L201.174 88.6456L200.475 93.412ZM197.545 97.4785L199.833 85.6726H202.501L204.775 97.4785H202.545L202.122 94.8843H200.256L199.804 97.4785H197.545Z" fill="white"></path>
  <path d="M208.375 90.7007H209.074C209.463 90.7007 209.769 90.6377 209.993 90.5115C210.216 90.3849 210.374 90.1931 210.466 89.9353C210.559 89.678 210.605 89.3597 210.605 88.9807C210.605 88.4367 210.505 88.0216 210.306 87.7346C210.106 87.4483 209.735 87.3046 209.191 87.3046H208.375V90.7007ZM205.97 97.4785V85.6723H209.031C209.827 85.6723 210.51 85.7618 211.079 85.9418C211.647 86.1216 212.084 86.4399 212.391 86.8965C212.697 87.3534 212.849 87.9849 212.849 88.7911C212.849 89.2771 212.808 89.7075 212.726 90.0814C212.643 90.4554 212.497 90.781 212.288 91.0579C212.079 91.3348 211.786 91.5559 211.406 91.7211L213.039 97.4785H210.576L209.22 92.1293H208.375V97.4785H205.97Z" fill="white"></path>
  <path d="M217.47 97.6389C216.741 97.6389 216.134 97.5054 215.648 97.238C215.162 96.971 214.795 96.5675 214.548 96.0284C214.3 95.4889 214.156 94.8017 214.118 93.9657L216.187 93.6161C216.207 94.1021 216.258 94.5077 216.34 94.833C216.423 95.1586 216.549 95.4013 216.719 95.5617C216.889 95.7221 217.101 95.8021 217.353 95.8021C217.664 95.8021 217.875 95.7053 217.988 95.5107C218.099 95.3165 218.155 95.0931 218.155 94.8403C218.155 94.3448 218.036 93.9293 217.798 93.5939C217.56 93.2585 217.246 92.9215 216.858 92.5811L215.633 91.5173C215.196 91.1481 214.839 90.7298 214.562 90.2634C214.285 89.797 214.147 89.2236 214.147 88.5437C214.147 87.5723 214.431 86.8262 214.999 86.306C215.568 85.7865 216.348 85.5264 217.339 85.5264C217.932 85.5264 218.418 85.6235 218.796 85.8181C219.175 86.0124 219.469 86.2725 219.678 86.5977C219.887 86.9233 220.033 87.278 220.115 87.6618C220.198 88.046 220.249 88.4272 220.269 88.806L218.213 89.1119C218.194 88.7528 218.162 88.4367 218.119 88.1646C218.075 87.8928 217.988 87.6789 217.856 87.5236C217.725 87.3679 217.528 87.29 217.266 87.29C216.984 87.29 216.775 87.3945 216.639 87.6033C216.503 87.8128 216.435 88.0431 216.435 88.2959C216.435 88.7136 216.53 89.0566 216.719 89.3233C216.909 89.591 217.169 89.8701 217.499 90.1615L218.694 91.2107C219.19 91.6388 219.615 92.127 219.97 92.6757C220.324 93.225 220.502 93.9027 220.502 94.7093C220.502 95.263 220.375 95.7635 220.123 96.2103C219.87 96.6577 219.518 97.0074 219.066 97.2595C218.614 97.5124 218.082 97.6389 217.47 97.6389Z" fill="white"></path>
  <path d="M229.116 85.6723H230.967V100H229.116V85.6723Z" fill="white"></path>
  <path d="M242.496 90.6716H243.342C243.692 90.6716 243.961 90.6159 244.151 90.5039C244.34 90.3922 244.469 90.215 244.537 89.9723C244.605 89.7293 244.639 89.4183 244.639 89.0392C244.639 88.6797 244.612 88.3785 244.559 88.1355C244.506 87.8928 244.386 87.703 244.202 87.5672C244.017 87.4312 243.725 87.3632 243.327 87.3632H242.496V90.6716ZM240.091 97.4785V85.6723H243.837C244.547 85.6723 245.125 85.8061 245.572 86.0731C246.019 86.3405 246.352 86.7265 246.57 87.2318C246.789 87.7372 246.898 88.3491 246.898 89.0686C246.898 89.9138 246.755 90.5747 246.468 91.0509C246.182 91.5268 245.791 91.8644 245.295 92.0638C244.8 92.2631 244.231 92.3625 243.59 92.3625H242.496V97.4785H240.091Z" fill="white"></path>
  <path d="M248.166 85.6723H250.556V97.4785H248.166V85.6723Z" fill="white"></path>
  <path d="M254.769 90.6716H255.614C255.964 90.6716 256.234 90.6159 256.423 90.5039C256.613 90.3922 256.742 90.215 256.809 89.9723C256.877 89.7293 256.912 89.4183 256.912 89.0392C256.912 88.6797 256.885 88.3785 256.831 88.1355C256.778 87.8928 256.659 87.703 256.474 87.5672C256.29 87.4312 255.998 87.3632 255.6 87.3632H254.769V90.6716ZM252.364 97.4785V85.6723H256.11C256.819 85.6723 257.397 85.8061 257.844 86.0731C258.292 86.3405 258.624 86.7265 258.843 87.2318C259.062 87.7372 259.171 88.3491 259.171 89.0686C259.171 89.9138 259.027 90.5747 258.741 91.0509C258.454 91.5268 258.063 91.8644 257.567 92.0638C257.072 92.2631 256.504 92.3625 255.862 92.3625H254.769V97.4785H252.364Z" fill="white"></path>
  <path d="M260.409 97.4785V85.6723H265.555V87.3337H262.814V90.4675H264.928V92.1438H262.814V95.8458H265.583V97.4785H260.409Z" fill="white"></path>
  <path d="M269.854 97.6389C269.125 97.6389 268.518 97.5054 268.032 97.238C267.546 96.971 267.18 96.5675 266.932 96.0284C266.684 95.4889 266.541 94.8017 266.502 93.9657L268.571 93.6161C268.591 94.1021 268.642 94.5077 268.725 94.833C268.807 95.1586 268.933 95.4013 269.104 95.5617C269.274 95.7221 269.485 95.8021 269.738 95.8021C270.048 95.8021 270.26 95.7053 270.372 95.5107C270.483 95.3165 270.539 95.0931 270.539 94.8403C270.539 94.3448 270.42 93.9293 270.182 93.5939C269.944 93.2585 269.631 92.9215 269.242 92.5811L268.018 91.5173C267.58 91.1481 267.223 90.7298 266.946 90.2634C266.669 89.797 266.531 89.2236 266.531 88.5437C266.531 87.5723 266.815 86.8262 267.384 86.306C267.952 85.7865 268.732 85.5264 269.723 85.5264C270.316 85.5264 270.802 85.6235 271.181 85.8181C271.56 86.0124 271.854 86.2725 272.062 86.5977C272.271 86.9233 272.417 87.278 272.5 87.6618C272.582 88.046 272.633 88.4272 272.653 88.806L270.598 89.1119C270.578 88.7528 270.546 88.4367 270.503 88.1646C270.459 87.8928 270.372 87.6789 270.24 87.5236C270.109 87.3679 269.912 87.29 269.65 87.29C269.368 87.29 269.16 87.3945 269.024 87.6033C268.887 87.8128 268.819 88.0431 268.819 88.2959C268.819 88.7136 268.914 89.0566 269.104 89.3233C269.293 89.591 269.553 89.8701 269.883 90.1615L271.079 91.2107C271.574 91.6388 271.999 92.127 272.354 92.6757C272.708 93.225 272.886 93.9027 272.886 94.7093C272.886 95.263 272.76 95.7635 272.507 96.2103C272.254 96.6577 271.902 97.0074 271.45 97.2595C270.999 97.5124 270.466 97.6389 269.854 97.6389Z" fill="white"></path>
  <path d="M281.5 85.6723H283.351V100H281.5V85.6723Z" fill="white"></path>
  <path d="M293.583 97.4785V87.465H291.761V85.6723H297.796V87.465H296.003V97.4785H293.583Z" fill="white"></path>
  <path d="M302.182 97.6389C301.288 97.6389 300.594 97.4858 300.098 97.1798C299.603 96.8735 299.255 96.4315 299.056 95.8534C298.857 95.2753 298.757 94.5732 298.757 93.7471V85.6722H301.133V94.0825C301.133 94.3742 301.155 94.6605 301.199 94.9425C301.242 95.2241 301.34 95.4525 301.49 95.6275C301.641 95.8021 301.872 95.8898 302.182 95.8898C302.503 95.8898 302.739 95.8021 302.889 95.6275C303.04 95.4525 303.135 95.2241 303.174 94.9425C303.213 94.6605 303.232 94.3742 303.232 94.0825V85.6722H305.608V93.7471C305.608 94.5732 305.508 95.2753 305.309 95.8534C305.11 96.4315 304.762 96.8735 304.267 97.1798C303.771 97.4858 303.077 97.6389 302.182 97.6389Z" fill="white"></path>
  <path d="M309.689 95.7879H310.359C310.962 95.7879 311.377 95.637 311.606 95.3358C311.834 95.0349 311.948 94.583 311.948 93.9806C311.948 93.5139 311.895 93.1424 311.788 92.8656C311.681 92.5884 311.508 92.3843 311.27 92.253C311.032 92.1223 310.714 92.0565 310.316 92.0565H309.689V95.7879ZM309.689 90.4384H310.286C310.704 90.4384 311.02 90.3779 311.234 90.2564C311.447 90.1352 311.596 89.9501 311.678 89.7027C311.761 89.4546 311.802 89.1509 311.802 88.7914C311.802 88.432 311.742 88.1428 311.62 87.9245C311.499 87.7055 311.314 87.5479 311.066 87.4508C310.819 87.3534 310.505 87.3046 310.126 87.3046H309.689V90.4384ZM307.284 97.4785V85.6723H310.272C310.787 85.6723 311.263 85.7159 311.7 85.8036C312.137 85.8909 312.523 86.0466 312.859 86.2696C313.194 86.4933 313.452 86.8018 313.631 87.1955C313.811 87.5891 313.901 88.1017 313.901 88.7332C313.901 89.2094 313.833 89.6151 313.697 89.9501C313.561 90.2855 313.366 90.5504 313.114 90.7446C312.861 90.9392 312.55 91.0706 312.181 91.1379C312.638 91.206 313.021 91.3617 313.333 91.6047C313.644 91.8477 313.877 92.1682 314.032 92.5665C314.188 92.9652 314.265 93.4459 314.265 94.0097C314.265 94.6027 314.19 95.1175 314.04 95.5547C313.889 95.992 313.668 96.3515 313.377 96.6334C313.085 96.9153 312.725 97.1267 312.298 97.2675C311.87 97.4083 311.375 97.4785 310.811 97.4785H307.284Z" fill="white"></path>
  <path d="M315.65 97.4785V85.6723H320.796V87.3337H318.055V90.4675H320.169V92.1438H318.055V95.8458H320.824V97.4785H315.65Z" fill="white"></path>
  <path d="M325.095 97.6389C324.366 97.6389 323.759 97.5054 323.273 97.238C322.787 96.971 322.421 96.5675 322.173 96.0284C321.925 95.4889 321.782 94.8017 321.743 93.9657L323.812 93.6161C323.832 94.1021 323.883 94.5077 323.966 94.833C324.048 95.1586 324.174 95.4013 324.345 95.5617C324.514 95.7221 324.726 95.8021 324.979 95.8021C325.289 95.8021 325.501 95.7053 325.613 95.5107C325.724 95.3165 325.78 95.0931 325.78 94.8403C325.78 94.3448 325.661 93.9293 325.423 93.5939C325.185 93.2585 324.872 92.9215 324.483 92.5811L323.259 91.5173C322.821 91.1481 322.464 90.7298 322.187 90.2634C321.91 89.797 321.772 89.2236 321.772 88.5437C321.772 87.5723 322.056 86.8262 322.625 86.306C323.193 85.7865 323.973 85.5264 324.964 85.5264C325.557 85.5264 326.043 85.6235 326.422 85.8181C326.801 86.0124 327.095 86.2725 327.303 86.5977C327.512 86.9233 327.658 87.278 327.741 87.6618C327.823 88.046 327.874 88.4272 327.894 88.806L325.839 89.1119C325.819 88.7528 325.787 88.4367 325.744 88.1646C325.7 87.8928 325.613 87.6789 325.481 87.5236C325.35 87.3679 325.153 87.29 324.891 87.29C324.609 87.29 324.401 87.3945 324.265 87.6033C324.128 87.8128 324.06 88.0431 324.06 88.2959C324.06 88.7136 324.155 89.0566 324.345 89.3233C324.534 89.591 324.794 89.8701 325.124 90.1615L326.32 91.2107C326.815 91.6388 327.24 92.127 327.595 92.6757C327.949 93.225 328.127 93.9027 328.127 94.7093C328.127 95.263 328.001 95.7635 327.748 96.2103C327.495 96.6577 327.143 97.0074 326.691 97.2595C326.24 97.5124 325.708 97.6389 325.095 97.6389Z" fill="white"></path>
  <path d="M185.942 73.199C185.072 73.199 184.383 73.0161 183.874 72.6503C183.365 72.2842 183.002 71.765 182.784 71.0914C182.567 70.418 182.458 69.6359 182.458 68.7452V64.4347C182.458 63.512 182.569 62.7166 182.792 62.0486C183.015 61.3804 183.404 60.8662 183.961 60.5058C184.518 60.1454 185.274 59.9651 186.228 59.9651C187.15 59.9651 187.879 60.1188 188.415 60.4264C188.95 60.7339 189.335 61.1687 189.568 61.7306C189.801 62.2926 189.918 62.9608 189.918 63.7348V64.4822H187.357V63.5756C187.357 63.2364 187.336 62.9368 187.294 62.677C187.251 62.4173 187.153 62.2132 186.999 62.0648C186.845 61.9164 186.599 61.8417 186.26 61.8417C185.91 61.8417 185.655 61.9322 185.496 62.1122C185.337 62.2926 185.236 62.5236 185.194 62.8042C185.152 63.0852 185.13 63.3845 185.13 63.7028V69.4131C185.13 69.7738 185.162 70.0972 185.226 70.3835C185.29 70.6699 185.409 70.8927 185.584 71.0515C185.759 71.2106 186.01 71.2901 186.339 71.2901C186.668 71.2901 186.922 71.2053 187.103 71.0357C187.283 70.8661 187.407 70.6354 187.477 70.344C187.545 70.0523 187.58 69.721 187.58 69.3495V67.9817H186.324V66.3911H189.95V73.0079H188.232L188.073 71.8469C187.903 72.2393 187.649 72.5627 187.309 72.8171C186.97 73.0718 186.514 73.199 185.942 73.199Z" fill="white"></path>
  <path d="M199.939 65.6114H200.702C201.126 65.6114 201.46 65.5424 201.704 65.4048C201.948 65.2668 202.12 65.0573 202.221 64.7764C202.322 64.4957 202.372 64.148 202.372 63.7344C202.372 63.1405 202.264 62.6874 202.046 62.3748C201.829 62.0619 201.423 61.9053 200.829 61.9053H199.939V65.6114ZM197.314 73.0078V60.1239H200.655C201.524 60.1239 202.269 60.2219 202.889 60.4181C203.51 60.6143 203.987 60.9617 204.321 61.4601C204.655 61.9584 204.822 62.6479 204.822 63.5278C204.822 64.0581 204.777 64.5274 204.687 64.9352C204.597 65.3437 204.438 65.6987 204.209 66.0009C203.981 66.3034 203.661 66.5445 203.247 66.7251L205.029 73.0078H202.341L200.861 67.1703H199.939V73.0078H197.314Z" fill="white"></path>
  <path d="M215.638 71.2898C215.977 71.2898 216.227 71.2133 216.386 71.0592C216.545 70.9057 216.651 70.6991 216.704 70.439C216.757 70.1792 216.783 69.9008 216.783 69.604V63.5118C216.783 63.215 216.757 62.9391 216.704 62.6847C216.651 62.4303 216.545 62.2262 216.386 62.0725C216.227 61.919 215.977 61.8418 215.638 61.8418C215.32 61.8418 215.081 61.919 214.922 62.0725C214.763 62.2262 214.657 62.4303 214.604 62.6847C214.551 62.9391 214.525 63.215 214.525 63.5118V69.604C214.525 69.9008 214.549 70.1792 214.596 70.439C214.644 70.6991 214.748 70.9057 214.906 71.0592C215.066 71.2133 215.31 71.2898 215.638 71.2898ZM215.638 73.1826C214.694 73.1826 213.947 73.013 213.396 72.6738C212.844 72.3346 212.449 71.8496 212.211 71.2183C211.972 70.5874 211.852 69.8321 211.852 68.9516V64.1481C211.852 63.2679 211.972 62.5154 212.211 61.8896C212.449 61.2637 212.844 60.7869 213.396 60.4581C213.947 60.1294 214.694 59.9648 215.638 59.9648C216.593 59.9648 217.348 60.1316 217.905 60.4657C218.462 60.7999 218.859 61.277 219.098 61.8972C219.336 62.5177 219.455 63.2679 219.455 64.1481V68.9516C219.455 69.8321 219.336 70.5874 219.098 71.2183C218.859 71.8496 218.462 72.3346 217.905 72.6738C217.348 73.013 216.593 73.1826 215.638 73.1826Z" fill="white"></path>
  <path d="M230.399 73.1829C229.423 73.1829 228.665 73.0161 228.125 72.682C227.584 72.3479 227.204 71.8656 226.987 71.2344C226.769 70.6038 226.661 69.8374 226.661 68.936V60.1242H229.254V69.3018C229.254 69.6198 229.278 69.933 229.325 70.2402C229.373 70.5481 229.479 70.7971 229.643 70.9879C229.808 71.1787 230.06 71.2743 230.399 71.2743C230.749 71.2743 231.006 71.1787 231.17 70.9879C231.335 70.7971 231.438 70.5481 231.481 70.2402C231.523 69.933 231.544 69.6198 231.544 69.3018V60.1242H234.137V68.936C234.137 69.8374 234.028 70.6038 233.811 71.2344C233.594 71.8656 233.214 72.3479 232.673 72.682C232.133 73.0161 231.375 73.1829 230.399 73.1829Z" fill="white"></path>
  <path d="M244.158 65.5797H245.08C245.462 65.5797 245.756 65.5189 245.963 65.3968C246.17 65.275 246.31 65.0816 246.384 64.8162C246.458 64.5513 246.496 64.2118 246.496 63.7983C246.496 63.4062 246.466 63.0775 246.408 62.812C246.35 62.5472 246.22 62.3406 246.019 62.1918C245.817 62.0435 245.499 61.9691 245.064 61.9691H244.158V65.5797ZM241.533 73.0081V60.1241H245.621C246.395 60.1241 247.026 60.27 247.513 60.5614C248.001 60.8531 248.365 61.2749 248.603 61.8261C248.842 62.3776 248.961 63.0455 248.961 63.8302C248.961 64.7526 248.805 65.474 248.492 65.9935C248.179 66.5131 247.752 66.8814 247.211 67.0988C246.671 67.3161 246.05 67.425 245.351 67.425H244.158V73.0081H241.533Z" fill="white"></path>
</svg>
